<svg xmlns="http://www.w3.org/2000/svg" xmlns:v="https://svgstorm.com"
viewBox = "0 0 1262 783"
width="50"
height="50">
<g fill="None" fill-opacity="0.0" stroke="#000000" stroke-opacity="0.00" stroke-width="0.3"><path d="
M 0.00 783.00 
L 1262.00 783.00
L 1262.00 0.00
L 0.00 0.00
L 0.00 783.00
M 720.00 115.00 
C 729.59 118.63 744.09 120.65 751.00 128.00
C 751.49 127.95 752.51 127.93 753.00 128.00
C 770.91 130.71 786.25 146.53 801.30 155.70 C 816.34 164.88 829.18 178.46 841.08 191.92 C 852.99 205.37 866.74 219.92 873.00 237.00
C 879.82 244.58 884.85 253.41 889.70 263.30 C 894.56 273.18 898.70 283.59 902.90 294.10 C 907.11 304.60 909.92 315.99 913.78 327.22 C 917.64 338.45 918.07 351.69 921.00 364.00 C 923.93 376.31 923.82 389.69 926.00 403.00 C 928.18 416.31 924.34 432.19 924.00 445.00 C 923.66 457.81 920.89 471.39 918.07 483.07 C 915.26 494.76 912.58 506.89 909.01 518.01 C 905.44 529.13 902.42 540.60 897.68 550.68 C 892.95 560.76 888.34 570.50 883.03 580.03 C 877.72 589.57 871.04 597.50 865.30 606.30 C 859.55 615.10 852.68 622.88 845.30 630.30 C 837.93 637.73 833.68 646.83 824.92 652.92 C 816.15 659.00 809.60 666.54 800.71 672.71 C 791.81 678.87 783.11 684.27 772.93 688.93 C 762.74 693.59 753.27 698.42 742.11 702.11 C 730.95 705.80 718.75 708.05 707.00 711.00 C 695.24 713.95 685.48 718.87 672.99 720.99 C 660.50 723.11 645.60 723.74 632.00 724.00 C 618.40 724.26 602.81 723.33 590.00 722.00 C 577.19 720.67 565.51 716.93 553.99 714.01 C 542.47 711.09 531.92 706.66 521.33 702.67 C 510.74 698.68 503.75 690.81 493.90 686.10 C 484.05 681.39 474.98 675.82 467.08 668.92 C 459.19 662.02 449.08 657.59 444.00 648.00
C 441.19 645.93 438.55 643.40 435.00 643.00
C 435.51 639.48 432.56 636.50 429.00 637.00
C 424.92 628.82 416.63 622.84 411.23 614.77 C 405.84 606.70 399.27 599.70 394.10 590.90 C 388.92 582.11 383.73 574.13 379.01 564.99 C 374.29 555.85 369.91 546.79 366.10 536.90 C 362.28 527.02 359.26 517.37 356.00 507.00 C 352.75 496.63 350.43 485.07 348.00 474.00 C 345.57 462.93 344.11 449.93 343.00 438.00 C 341.89 426.07 340.17 411.92 341.00 399.00 C 341.83 386.08 341.27 372.98 343.00 361.00 C 344.73 349.02 348.18 338.65 350.33 327.33 C 352.48 316.01 356.51 306.19 359.99 295.99 C 363.47 285.79 367.19 275.65 371.00 266.00 C 374.80 256.34 380.51 249.02 385.11 240.11 C 389.70 231.19 395.52 223.06 400.70 214.70 C 405.88 206.34 412.71 199.51 418.70 191.70 C 424.69 183.90 431.14 177.15 438.70 170.70 C 446.27 164.26 450.71 156.28 459.10 151.10 C 467.49 145.92 475.07 139.80 484.07 135.07 C 493.08 130.34 500.64 124.55 510.68 120.68 C 520.73 116.81 530.25 113.06 541.00 110.00 C 551.76 106.95 561.75 103.97 574.00 103.00 C 586.25 102.03 598.93 99.68 612.00 100.00 C 625.07 100.32 637.75 102.02 651.00 102.00 C 664.25 101.98 675.23 105.01 687.01 106.99 C 698.79 108.97 709.08 111.53 720.00 115.00 Z"/>
</g>
<g fill="None" fill-opacity="0.0" stroke="#F5EB65" stroke-opacity="1.00" stroke-width="0.3"><path d="
M 444.00 648.00 
C 449.51 652.05 453.32 660.53 462.00 657.00
C 466.30 662.91 474.70 664.92 479.70 670.30 C 484.71 675.68 493.54 678.51 496.00 685.00
C 507.07 686.94 515.93 692.32 526.03 695.97 C 536.13 699.62 545.49 703.20 555.10 707.90 C 564.71 712.61 579.71 709.98 588.00 716.00
C 612.73 712.19 642.71 714.39 666.67 708.67 C 690.63 702.96 709.62 694.10 732.00 685.00
C 737.75 679.23 745.76 673.95 752.90 668.90 C 760.04 663.86 765.89 657.18 773.23 652.23 C 780.57 647.28 785.34 638.40 793.00 635.00
C 797.17 624.73 807.88 619.45 813.10 610.10 C 818.32 600.75 828.21 593.71 830.00 582.00
C 837.44 579.50 837.13 571.01 841.71 565.71 C 846.28 560.40 847.28 552.76 850.33 546.33 C 853.38 539.90 856.13 532.56 858.33 525.33 C 860.53 518.10 863.84 512.01 865.00 504.00 C 866.16 495.99 870.06 489.66 871.97 481.97 C 873.87 474.27 872.60 464.47 875.00 457.00 C 877.40 449.53 876.80 439.81 877.00 431.00 C 877.20 422.19 878.83 412.52 877.00 404.00 C 875.18 395.47 876.35 386.32 875.00 378.00 C 873.65 369.68 872.22 361.39 870.29 353.71 C 868.36 346.02 867.66 338.02 865.10 330.90 C 862.53 323.78 861.56 315.89 858.89 309.11 C 856.22 302.33 855.43 293.13 852.02 286.98 C 848.62 280.83 845.70 273.89 842.89 268.11 C 840.09 262.33 838.98 249.81 834.00 252.00
C 833.68 240.85 823.60 234.24 818.68 225.32 C 813.76 216.40 804.42 210.27 802.00 200.00
C 810.00 206.09 813.96 215.78 820.90 223.10 C 827.84 230.42 830.95 242.34 839.00 248.00
C 845.38 265.60 854.28 280.51 861.11 297.89 C 867.94 315.28 873.86 335.02 877.00 354.00
C 876.86 318.63 858.27 288.60 849.00 256.00
C 841.15 250.17 838.90 238.10 832.89 230.11 C 826.89 222.11 822.79 212.00 816.22 204.78 C 809.65 197.55 804.15 189.05 797.75 181.25 C 791.34 173.45 782.98 168.37 776.30 160.70 C 769.61 153.04 758.05 150.54 753.00 141.00
C 758.44 140.67 762.48 140.45 768.00 140.00
C 767.92 143.72 772.39 145.37 776.00 145.00
C 775.70 136.08 761.27 140.24 760.00 131.00
C 757.61 133.60 753.10 132.10 753.00 128.00
C 752.51 127.93 751.49 127.95 751.00 128.00
C 743.70 128.75 742.01 121.96 735.90 121.10 C 729.80 120.24 724.52 117.57 720.00 115.00
C 709.08 111.53 698.79 108.97 687.01 106.99 C 675.23 105.01 664.25 101.98 651.00 102.00 C 637.75 102.02 625.07 100.32 612.00 100.00 C 598.93 99.68 586.25 102.03 574.00 103.00 C 561.75 103.97 551.76 106.95 541.00 110.00 C 530.25 113.06 520.73 116.81 510.68 120.68 C 500.64 124.55 493.08 130.34 484.07 135.07 C 475.07 139.80 467.49 145.92 459.10 151.10 C 450.71 156.28 446.27 164.26 438.70 170.70 C 431.14 177.15 424.69 183.90 418.70 191.70 C 412.71 199.51 405.88 206.34 400.70 214.70 C 395.52 223.06 389.70 231.19 385.11 240.11 C 380.51 249.02 374.80 256.34 371.00 266.00 C 367.19 275.65 363.47 285.79 359.99 295.99 C 356.51 306.19 352.48 316.01 350.33 327.33 C 348.18 338.65 344.73 349.02 343.00 361.00 C 341.27 372.98 341.83 386.08 341.00 399.00 C 340.17 411.92 341.89 426.07 343.00 438.00 C 344.11 449.93 345.57 462.93 348.00 474.00 C 350.43 485.07 352.75 496.63 356.00 507.00 C 359.26 517.37 362.28 527.02 366.10 536.90 C 369.91 546.79 374.29 555.85 379.01 564.99 C 383.73 574.13 388.92 582.11 394.10 590.90 C 399.27 599.70 405.84 606.70 411.23 614.77 C 416.63 622.84 424.92 628.82 429.00 637.00
C 432.56 636.50 435.51 639.48 435.00 643.00
C 438.55 643.40 441.19 645.93 444.00 648.00 Z"/>
</g>
<g fill="None" fill-opacity="0.0" stroke="#C79834" stroke-opacity="1.00" stroke-width="0.3"><path d="
M 751.00 128.00
C 744.09 120.65 729.59 118.63 720.00 115.00
C 724.52 117.57 729.80 120.24 735.90 121.10 C 742.01 121.96 743.70 128.75 751.00 128.00 Z"/>
</g>
<g fill="None" fill-opacity="0.0" stroke="#C79733" stroke-opacity="0.96" stroke-width="0.3"><path d="
M 444.00 648.00
C 449.08 657.59 459.19 662.02 467.08 668.92 C 474.98 675.82 484.05 681.39 493.90 686.10 C 503.75 690.81 510.74 698.68 521.33 702.67 C 531.92 706.66 542.47 711.09 553.99 714.01 C 565.51 716.93 577.19 720.67 590.00 722.00 C 602.81 723.33 618.40 724.26 632.00 724.00 C 645.60 723.74 660.50 723.11 672.99 720.99 C 685.48 718.87 695.24 713.95 707.00 711.00 C 718.75 708.05 730.95 705.80 742.11 702.11 C 753.27 698.42 762.74 693.59 772.93 688.93 C 783.11 684.27 791.81 678.87 800.71 672.71 C 809.60 666.54 816.15 659.00 824.92 652.92 C 833.68 646.83 837.93 637.73 845.30 630.30 C 852.68 622.88 859.55 615.10 865.30 606.30 C 871.04 597.50 877.72 589.57 883.03 580.03 C 888.34 570.50 892.95 560.76 897.68 550.68 C 902.42 540.60 905.44 529.13 909.01 518.01 C 912.58 506.89 915.26 494.76 918.07 483.07 C 920.89 471.39 923.66 457.81 924.00 445.00 C 924.34 432.19 928.18 416.31 926.00 403.00 C 923.82 389.69 923.93 376.31 921.00 364.00 C 918.07 351.69 917.64 338.45 913.78 327.22 C 909.92 315.99 907.11 304.60 902.90 294.10 C 898.70 283.59 894.56 273.18 889.70 263.30 C 884.85 253.41 879.82 244.58 873.00 237.00
C 866.74 219.92 852.99 205.37 841.08 191.92 C 829.18 178.46 816.34 164.88 801.30 155.70 C 786.25 146.53 770.91 130.71 753.00 128.00
C 753.10 132.10 757.61 133.60 760.00 131.00
C 761.27 140.24 775.70 136.08 776.00 145.00
C 772.39 145.37 767.92 143.72 768.00 140.00
C 762.48 140.45 758.44 140.67 753.00 141.00
C 758.05 150.54 769.61 153.04 776.30 160.70 C 782.98 168.37 791.34 173.45 797.75 181.25 C 804.15 189.05 809.65 197.55 816.22 204.78 C 822.79 212.00 826.89 222.11 832.89 230.11 C 838.90 238.10 841.15 250.17 849.00 256.00
C 858.27 288.60 876.86 318.63 877.00 354.00
C 873.86 335.02 867.94 315.28 861.11 297.89 C 854.28 280.51 845.38 265.60 839.00 248.00
C 830.95 242.34 827.84 230.42 820.90 223.10 C 813.96 215.78 810.00 206.09 802.00 200.00
C 804.42 210.27 813.76 216.40 818.68 225.32 C 823.60 234.24 833.68 240.85 834.00 252.00
C 838.98 249.81 840.09 262.33 842.89 268.11 C 845.70 273.89 848.62 280.83 852.02 286.98 C 855.43 293.13 856.22 302.33 858.89 309.11 C 861.56 315.89 862.53 323.78 865.10 330.90 C 867.66 338.02 868.36 346.02 870.29 353.71 C 872.22 361.39 873.65 369.68 875.00 378.00 C 876.35 386.32 875.18 395.47 877.00 404.00 C 878.83 412.52 877.20 422.19 877.00 431.00 C 876.80 439.81 877.40 449.53 875.00 457.00 C 872.60 464.47 873.87 474.27 871.97 481.97 C 870.06 489.66 866.16 495.99 865.00 504.00 C 863.84 512.01 860.53 518.10 858.33 525.33 C 856.13 532.56 853.38 539.90 850.33 546.33 C 847.28 552.76 846.28 560.40 841.71 565.71 C 837.13 571.01 837.44 579.50 830.00 582.00
C 828.21 593.71 818.32 600.75 813.10 610.10 C 807.88 619.45 797.17 624.73 793.00 635.00
C 785.34 638.40 780.57 647.28 773.23 652.23 C 765.89 657.18 760.04 663.86 752.90 668.90 C 745.76 673.95 737.75 679.23 732.00 685.00
C 709.62 694.10 690.63 702.96 666.67 708.67 C 642.71 714.39 612.73 712.19 588.00 716.00
C 579.71 709.98 564.71 712.61 555.10 707.90 C 545.49 703.20 536.13 699.62 526.03 695.97 C 515.93 692.32 507.07 686.94 496.00 685.00
C 493.54 678.51 484.71 675.68 479.70 670.30 C 474.70 664.92 466.30 662.91 462.00 657.00
C 453.32 660.53 449.51 652.05 444.00 648.00
M 884.00 396.00
C 881.70 383.18 878.88 367.40 879.00 355.00
C 881.86 368.20 887.17 381.84 884.00 396.00
M 886.00 401.00
C 886.00 407.67 886.00 414.33 886.00 421.00
C 884.37 415.41 884.31 406.52 886.00 401.00
M 882.00 472.00
C 879.18 465.13 883.77 457.95 884.00 451.00
C 886.69 457.84 884.48 466.12 882.00 472.00 Z"/>
</g>
<g fill="None" fill-opacity="0.0" stroke="#F5DC56" stroke-opacity="1.00" stroke-width="0.3"><path d="
M 884.00 396.00
C 887.17 381.84 881.86 368.20 879.00 355.00
C 878.88 367.40 881.70 383.18 884.00 396.00 Z"/>
</g>
<g fill="None" fill-opacity="0.0" stroke="#F5DC56" stroke-opacity="1.00" stroke-width="0.3"><path d="
M 886.00 401.00
C 884.31 406.52 884.37 415.41 886.00 421.00
C 886.00 414.33 886.00 407.67 886.00 401.00 Z"/>
</g>
<g fill="None" fill-opacity="0.0" stroke="#F5DC56" stroke-opacity="1.00" stroke-width="0.3"><path d="
M 882.00 472.00
C 884.48 466.12 886.69 457.84 884.00 451.00
C 883.77 457.95 879.18 465.13 882.00 472.00 Z"/>
</g>
<g fill="#000000" fill-opacity="0.00" stroke="None">
<path d="
M 0.00 783.00
L 1262.00 783.00
L 1262.00 0.00
L 0.00 0.00
L 0.00 783.00
M 720.00 115.00
C 729.59 118.63 744.09 120.65 751.00 128.00
C 751.49 127.95 752.51 127.93 753.00 128.00
C 770.91 130.71 786.25 146.53 801.30 155.70 C 816.34 164.88 829.18 178.46 841.08 191.92 C 852.99 205.37 866.74 219.92 873.00 237.00
C 879.82 244.58 884.85 253.41 889.70 263.30 C 894.56 273.18 898.70 283.59 902.90 294.10 C 907.11 304.60 909.92 315.99 913.78 327.22 C 917.64 338.45 918.07 351.69 921.00 364.00 C 923.93 376.31 923.82 389.69 926.00 403.00 C 928.18 416.31 924.34 432.19 924.00 445.00 C 923.66 457.81 920.89 471.39 918.07 483.07 C 915.26 494.76 912.58 506.89 909.01 518.01 C 905.44 529.13 902.42 540.60 897.68 550.68 C 892.95 560.76 888.34 570.50 883.03 580.03 C 877.72 589.57 871.04 597.50 865.30 606.30 C 859.55 615.10 852.68 622.88 845.30 630.30 C 837.93 637.73 833.68 646.83 824.92 652.92 C 816.15 659.00 809.60 666.54 800.71 672.71 C 791.81 678.87 783.11 684.27 772.93 688.93 C 762.74 693.59 753.27 698.42 742.11 702.11 C 730.95 705.80 718.75 708.05 707.00 711.00 C 695.24 713.95 685.48 718.87 672.99 720.99 C 660.50 723.11 645.60 723.74 632.00 724.00 C 618.40 724.26 602.81 723.33 590.00 722.00 C 577.19 720.67 565.51 716.93 553.99 714.01 C 542.47 711.09 531.92 706.66 521.33 702.67 C 510.74 698.68 503.75 690.81 493.90 686.10 C 484.05 681.39 474.98 675.82 467.08 668.92 C 459.19 662.02 449.08 657.59 444.00 648.00
C 441.19 645.93 438.55 643.40 435.00 643.00
C 435.51 639.48 432.56 636.50 429.00 637.00
C 424.92 628.82 416.63 622.84 411.23 614.77 C 405.84 606.70 399.27 599.70 394.10 590.90 C 388.92 582.11 383.73 574.13 379.01 564.99 C 374.29 555.85 369.91 546.79 366.10 536.90 C 362.28 527.02 359.26 517.37 356.00 507.00 C 352.75 496.63 350.43 485.07 348.00 474.00 C 345.57 462.93 344.11 449.93 343.00 438.00 C 341.89 426.07 340.17 411.92 341.00 399.00 C 341.83 386.08 341.27 372.98 343.00 361.00 C 344.73 349.02 348.18 338.65 350.33 327.33 C 352.48 316.01 356.51 306.19 359.99 295.99 C 363.47 285.79 367.19 275.65 371.00 266.00 C 374.80 256.34 380.51 249.02 385.11 240.11 C 389.70 231.19 395.52 223.06 400.70 214.70 C 405.88 206.34 412.71 199.51 418.70 191.70 C 424.69 183.90 431.14 177.15 438.70 170.70 C 446.27 164.26 450.71 156.28 459.10 151.10 C 467.49 145.92 475.07 139.80 484.07 135.07 C 493.08 130.34 500.64 124.55 510.68 120.68 C 520.73 116.81 530.25 113.06 541.00 110.00 C 551.76 106.95 561.75 103.97 574.00 103.00 C 586.25 102.03 598.93 99.68 612.00 100.00 C 625.07 100.32 637.75 102.02 651.00 102.00 C 664.25 101.98 675.23 105.01 687.01 106.99 C 698.79 108.97 709.08 111.53 720.00 115.00 Z"/>
</g>
<g fill="#F5EB65" fill-opacity="1.00" stroke="None">
<path d="
M 444.00 648.00
C 449.51 652.05 453.32 660.53 462.00 657.00
C 466.30 662.91 474.70 664.92 479.70 670.30 C 484.71 675.68 493.54 678.51 496.00 685.00
C 507.07 686.94 515.93 692.32 526.03 695.97 C 536.13 699.62 545.49 703.20 555.10 707.90 C 564.71 712.61 579.71 709.98 588.00 716.00
C 612.73 712.19 642.71 714.39 666.67 708.67 C 690.63 702.96 709.62 694.10 732.00 685.00
C 737.75 679.23 745.76 673.95 752.90 668.90 C 760.04 663.86 765.89 657.18 773.23 652.23 C 780.57 647.28 785.34 638.40 793.00 635.00
C 797.17 624.73 807.88 619.45 813.10 610.10 C 818.32 600.75 828.21 593.71 830.00 582.00
C 837.44 579.50 837.13 571.01 841.71 565.71 C 846.28 560.40 847.28 552.76 850.33 546.33 C 853.38 539.90 856.13 532.56 858.33 525.33 C 860.53 518.10 863.84 512.01 865.00 504.00 C 866.16 495.99 870.06 489.66 871.97 481.97 C 873.87 474.27 872.60 464.47 875.00 457.00 C 877.40 449.53 876.80 439.81 877.00 431.00 C 877.20 422.19 878.83 412.52 877.00 404.00 C 875.18 395.47 876.35 386.32 875.00 378.00 C 873.65 369.68 872.22 361.39 870.29 353.71 C 868.36 346.02 867.66 338.02 865.10 330.90 C 862.53 323.78 861.56 315.89 858.89 309.11 C 856.22 302.33 855.43 293.13 852.02 286.98 C 848.62 280.83 845.70 273.89 842.89 268.11 C 840.09 262.33 838.98 249.81 834.00 252.00
C 833.68 240.85 823.60 234.24 818.68 225.32 C 813.76 216.40 804.42 210.27 802.00 200.00
C 810.00 206.09 813.96 215.78 820.90 223.10 C 827.84 230.42 830.95 242.34 839.00 248.00
C 845.38 265.60 854.28 280.51 861.11 297.89 C 867.94 315.28 873.86 335.02 877.00 354.00
C 876.86 318.63 858.27 288.60 849.00 256.00
C 841.15 250.17 838.90 238.10 832.89 230.11 C 826.89 222.11 822.79 212.00 816.22 204.78 C 809.65 197.55 804.15 189.05 797.75 181.25 C 791.34 173.45 782.98 168.37 776.30 160.70 C 769.61 153.04 758.05 150.54 753.00 141.00
C 758.44 140.67 762.48 140.45 768.00 140.00
C 767.92 143.72 772.39 145.37 776.00 145.00
C 775.70 136.08 761.27 140.24 760.00 131.00
C 757.61 133.60 753.10 132.10 753.00 128.00
C 752.51 127.93 751.49 127.95 751.00 128.00
C 743.70 128.75 742.01 121.96 735.90 121.10 C 729.80 120.24 724.52 117.57 720.00 115.00
C 709.08 111.53 698.79 108.97 687.01 106.99 C 675.23 105.01 664.25 101.98 651.00 102.00 C 637.75 102.02 625.07 100.32 612.00 100.00 C 598.93 99.68 586.25 102.03 574.00 103.00 C 561.75 103.97 551.76 106.95 541.00 110.00 C 530.25 113.06 520.73 116.81 510.68 120.68 C 500.64 124.55 493.08 130.34 484.07 135.07 C 475.07 139.80 467.49 145.92 459.10 151.10 C 450.71 156.28 446.27 164.26 438.70 170.70 C 431.14 177.15 424.69 183.90 418.70 191.70 C 412.71 199.51 405.88 206.34 400.70 214.70 C 395.52 223.06 389.70 231.19 385.11 240.11 C 380.51 249.02 374.80 256.34 371.00 266.00 C 367.19 275.65 363.47 285.79 359.99 295.99 C 356.51 306.19 352.48 316.01 350.33 327.33 C 348.18 338.65 344.73 349.02 343.00 361.00 C 341.27 372.98 341.83 386.08 341.00 399.00 C 340.17 411.92 341.89 426.07 343.00 438.00 C 344.11 449.93 345.57 462.93 348.00 474.00 C 350.43 485.07 352.75 496.63 356.00 507.00 C 359.26 517.37 362.28 527.02 366.10 536.90 C 369.91 546.79 374.29 555.85 379.01 564.99 C 383.73 574.13 388.92 582.11 394.10 590.90 C 399.27 599.70 405.84 606.70 411.23 614.77 C 416.63 622.84 424.92 628.82 429.00 637.00
C 432.56 636.50 435.51 639.48 435.00 643.00
C 438.55 643.40 441.19 645.93 444.00 648.00 Z"/>
</g>
<g fill="#C79834" fill-opacity="1.00" stroke="None">
<path d="
M 751.00 128.00
C 744.09 120.65 729.59 118.63 720.00 115.00
C 724.52 117.57 729.80 120.24 735.90 121.10 C 742.01 121.96 743.70 128.75 751.00 128.00 Z"/>
</g>
<g fill="#C79733" fill-opacity="0.96" stroke="None">
<path d="
M 444.00 648.00
C 449.08 657.59 459.19 662.02 467.08 668.92 C 474.98 675.82 484.05 681.39 493.90 686.10 C 503.75 690.81 510.74 698.68 521.33 702.67 C 531.92 706.66 542.47 711.09 553.99 714.01 C 565.51 716.93 577.19 720.67 590.00 722.00 C 602.81 723.33 618.40 724.26 632.00 724.00 C 645.60 723.74 660.50 723.11 672.99 720.99 C 685.48 718.87 695.24 713.95 707.00 711.00 C 718.75 708.05 730.95 705.80 742.11 702.11 C 753.27 698.42 762.74 693.59 772.93 688.93 C 783.11 684.27 791.81 678.87 800.71 672.71 C 809.60 666.54 816.15 659.00 824.92 652.92 C 833.68 646.83 837.93 637.73 845.30 630.30 C 852.68 622.88 859.55 615.10 865.30 606.30 C 871.04 597.50 877.72 589.57 883.03 580.03 C 888.34 570.50 892.95 560.76 897.68 550.68 C 902.42 540.60 905.44 529.13 909.01 518.01 C 912.58 506.89 915.26 494.76 918.07 483.07 C 920.89 471.39 923.66 457.81 924.00 445.00 C 924.34 432.19 928.18 416.31 926.00 403.00 C 923.82 389.69 923.93 376.31 921.00 364.00 C 918.07 351.69 917.64 338.45 913.78 327.22 C 909.92 315.99 907.11 304.60 902.90 294.10 C 898.70 283.59 894.56 273.18 889.70 263.30 C 884.85 253.41 879.82 244.58 873.00 237.00
C 866.74 219.92 852.99 205.37 841.08 191.92 C 829.18 178.46 816.34 164.88 801.30 155.70 C 786.25 146.53 770.91 130.71 753.00 128.00
C 753.10 132.10 757.61 133.60 760.00 131.00
C 761.27 140.24 775.70 136.08 776.00 145.00
C 772.39 145.37 767.92 143.72 768.00 140.00
C 762.48 140.45 758.44 140.67 753.00 141.00
C 758.05 150.54 769.61 153.04 776.30 160.70 C 782.98 168.37 791.34 173.45 797.75 181.25 C 804.15 189.05 809.65 197.55 816.22 204.78 C 822.79 212.00 826.89 222.11 832.89 230.11 C 838.90 238.10 841.15 250.17 849.00 256.00
C 858.27 288.60 876.86 318.63 877.00 354.00
C 873.86 335.02 867.94 315.28 861.11 297.89 C 854.28 280.51 845.38 265.60 839.00 248.00
C 830.95 242.34 827.84 230.42 820.90 223.10 C 813.96 215.78 810.00 206.09 802.00 200.00
C 804.42 210.27 813.76 216.40 818.68 225.32 C 823.60 234.24 833.68 240.85 834.00 252.00
C 838.98 249.81 840.09 262.33 842.89 268.11 C 845.70 273.89 848.62 280.83 852.02 286.98 C 855.43 293.13 856.22 302.33 858.89 309.11 C 861.56 315.89 862.53 323.78 865.10 330.90 C 867.66 338.02 868.36 346.02 870.29 353.71 C 872.22 361.39 873.65 369.68 875.00 378.00 C 876.35 386.32 875.18 395.47 877.00 404.00 C 878.83 412.52 877.20 422.19 877.00 431.00 C 876.80 439.81 877.40 449.53 875.00 457.00 C 872.60 464.47 873.87 474.27 871.97 481.97 C 870.06 489.66 866.16 495.99 865.00 504.00 C 863.84 512.01 860.53 518.10 858.33 525.33 C 856.13 532.56 853.38 539.90 850.33 546.33 C 847.28 552.76 846.28 560.40 841.71 565.71 C 837.13 571.01 837.44 579.50 830.00 582.00
C 828.21 593.71 818.32 600.75 813.10 610.10 C 807.88 619.45 797.17 624.73 793.00 635.00
C 785.34 638.40 780.57 647.28 773.23 652.23 C 765.89 657.18 760.04 663.86 752.90 668.90 C 745.76 673.95 737.75 679.23 732.00 685.00
C 709.62 694.10 690.63 702.96 666.67 708.67 C 642.71 714.39 612.73 712.19 588.00 716.00
C 579.71 709.98 564.71 712.61 555.10 707.90 C 545.49 703.20 536.13 699.62 526.03 695.97 C 515.93 692.32 507.07 686.94 496.00 685.00
C 493.54 678.51 484.71 675.68 479.70 670.30 C 474.70 664.92 466.30 662.91 462.00 657.00
C 453.32 660.53 449.51 652.05 444.00 648.00
M 884.00 396.00
C 881.70 383.18 878.88 367.40 879.00 355.00
C 881.86 368.20 887.17 381.84 884.00 396.00
M 886.00 401.00
C 886.00 407.67 886.00 414.33 886.00 421.00
C 884.37 415.41 884.31 406.52 886.00 401.00
M 882.00 472.00
C 879.18 465.13 883.77 457.95 884.00 451.00
C 886.69 457.84 884.48 466.12 882.00 472.00 Z"/>
</g>
<g fill="#F5DC56" fill-opacity="1.00" stroke="None">
<path d="
M 884.00 396.00
C 887.17 381.84 881.86 368.20 879.00 355.00
C 878.88 367.40 881.70 383.18 884.00 396.00 Z"/>
</g>
<g fill="#F5DC56" fill-opacity="1.00" stroke="None">
<path d="
M 886.00 401.00
C 884.31 406.52 884.37 415.41 886.00 421.00
C 886.00 414.33 886.00 407.67 886.00 401.00 Z"/>
</g>
<g fill="#F5DC56" fill-opacity="1.00" stroke="None">
<path d="
M 882.00 472.00 
C 884.48 466.12 886.69 457.84 884.00 451.00
C 883.77 457.95 879.18 465.13 882.00 472.00 Z"/>
</g>
</svg>